<svg width="512" height="512" viewBox="0 0 512 512" fill="none" xmlns="http://www.w3.org/2000/svg">
<path d="M188.453 59.8975L187.635 60.718H186.818H186H185.182H184.365H183.547H182.729H181.912H181.094H180.276L179.459 61.5385H178.641H177.823H177.006H176.188H175.371L174.553 62.359H173.735H172.918H172.1H171.282H170.465H169.647H168.829L168.012 63.1795H167.194H166.376H165.559H164.741L163.923 64H163.106H162.288H161.471H160.653H159.835H159.018L158.2 64.8205H157.382H156.565H155.747H154.929L154.112 65.6411H153.294H152.476H151.659H150.841H150.023L149.206 66.4616H148.388H147.571H146.753H145.935L145.118 67.2821H144.3H143.482H142.665L141.847 68.1026H141.029H140.212H139.394H138.576L137.759 68.9231H136.941H136.123H135.306L134.488 69.7436H133.671H132.853H132.035L131.218 70.5641H130.4H129.582H128.765H127.947L127.129 71.3846H126.312H125.494H124.676L123.859 72.2052H123.041H122.223H121.406L120.588 73.0257H119.771H118.953L118.135 73.8462H117.318H116.5H115.682L114.865 74.6667H114.047H113.229L112.412 75.4872H111.594H110.776H109.959L109.141 76.3077H108.323H107.506L106.688 77.1282H105.871H105.053H104.235L103.418 77.9487H102.6L101.782 78.7693H100.965H100.147H99.3294L98.5117 79.5898H97.6941H96.8764L96.0588 80.4103H95.2411H94.4235L93.6058 81.2308H92.7882L91.9705 82.0513H91.1529H90.3353L89.5176 82.8718H88.7H87.8823L87.0647 83.6923H86.247H85.4294L84.6117 84.5128H83.7941L82.9764 85.3334H82.1588H81.3411L80.5235 86.1539H79.7058L78.8882 86.9744H78.0705H77.2529L76.4353 87.7949H75.6176L74.8 88.6154H73.9823L73.1647 89.4359H72.347H71.5294L70.7117 90.2564H69.8941L69.0764 91.0769H68.2588L67.4411 91.8975H66.6235L65.8058 92.718H64.9882H64.1705L63.3529 93.5385H62.5353L61.7176 94.359L60.9 95.1795H60.0823L59.2647 96H58.447H57.6294L56.8117 96.8205H55.9941L55.1764 97.6411H54.3588L53.5411 98.4616L52.7235 99.2821H51.9058L51.0882 100.103L50.2705 100.923V101.744L49.4529 102.564V103.385V104.205L48.6353 105.026V105.846V106.667V107.487V108.308V109.128V109.949V110.769V111.59V112.41V113.231V114.051V114.872V115.692V116.513V117.333V118.154V118.974V119.795V120.615V121.436V122.256V123.077V123.897V124.718V125.538V126.359V127.18V128V128.821V129.641L49.4529 130.462V131.282L48.6353 132.103L49.4529 132.923V133.744V134.564V135.385V136.205V137.026V137.846V138.667V139.487V140.308V141.128V141.949L50.2705 142.769V143.59V144.41V145.231V146.051V146.872V147.692V148.513V149.333V150.154L51.0882 150.974V151.795V152.615V153.436V154.256V155.077V155.897V156.718V157.538V158.359L51.9058 159.18V160V160.821V161.641V162.462V163.282V164.103L52.7235 164.923V165.744V166.564V167.385V168.205V169.026V169.846L53.5411 170.667V171.487V172.308V173.128V173.949V174.769V175.59L54.3588 176.41V177.231V178.051V178.872V179.692V180.513L55.1764 181.333V182.154V182.974V183.795V184.615L55.9941 185.436V186.256V187.077V187.897V188.718V189.538L56.8117 190.359V191.18V192V192.821V193.641L57.6294 194.462V195.282V196.103V196.923L58.447 197.744V198.564V199.385V200.205V201.026L59.2647 201.846V202.667V203.487V204.308L60.0823 205.128V205.949V206.769V207.59V208.41L60.9 209.231V210.051V210.872V211.692L61.7176 212.513V213.333V214.154L62.5353 214.974V215.795V216.615V217.436L63.3529 218.256V219.077V219.897V220.718L64.1705 221.538V222.359V223.18V224L64.9882 224.821V225.641V226.462V227.282L65.8058 228.103V228.923V229.744L66.6235 230.564V231.385V232.205V233.026L67.4411 233.846V234.667V235.487L68.2588 236.308V237.128V237.949L69.0764 238.769V239.59V240.41L69.8941 241.231V242.051V242.872L70.7117 243.692V244.513V245.333L71.5294 246.154V246.974V247.795L72.347 248.615V249.436V250.256L73.1647 251.077V251.897V252.718L73.9823 253.538V254.359V255.18L74.8 256V256.821L75.6176 257.641V258.462V259.282L76.4353 260.103V260.923L77.2529 261.744V262.564V263.385L78.0705 264.205V265.026V265.846L78.8882 266.667V267.487L79.7058 268.308V269.128V269.949L80.5235 270.769V271.59L81.3411 272.41V273.231V274.051L82.1588 274.872V275.692L82.9764 276.513V277.333L83.7941 278.154V278.974V279.795L84.6117 280.615V281.436L85.4294 282.256V283.077L86.247 283.897V284.718L87.0647 285.538V286.359V287.18L87.8823 288V288.821L88.7 289.641V290.462L89.5176 291.282V292.103L90.3353 292.923V293.744L91.1529 294.564V295.385L91.9705 296.205V297.026L92.7882 297.846V298.667L93.6058 299.487V300.308L94.4235 301.128V301.949V302.769L95.2411 303.59L96.0588 304.41V305.231L96.8764 306.051V306.872L97.6941 307.692V308.513L98.5117 309.333V310.154L99.3294 310.974V311.795L100.147 312.615V313.436L100.965 314.256V315.077L101.782 315.897L102.6 316.718V317.538L103.418 318.359V319.18L104.235 320V320.821L105.053 321.641V322.462L105.871 323.282V324.103L106.688 324.923L107.506 325.744V326.564L108.323 327.385V328.205L109.141 329.026L109.959 329.846V330.667L110.776 331.487V332.308L111.594 333.128L112.412 333.949V334.769L113.229 335.59L114.047 336.41V337.231L114.865 338.051V338.872L115.682 339.692L116.5 340.513L117.318 341.333V342.154L118.135 342.974L118.953 343.795V344.615L119.771 345.436V346.256L120.588 347.077L121.406 347.897V348.718L122.223 349.538L123.041 350.359L123.859 351.18V352L124.676 352.821L125.494 353.641V354.462L126.312 355.282L127.129 356.103L127.947 356.923V357.744L128.765 358.564L129.582 359.385V360.205L130.4 361.026L131.218 361.846L132.035 362.667V363.487L132.853 364.308L133.671 365.128L134.488 365.949V366.769L135.306 367.59L136.123 368.41L136.941 369.231V370.051L137.759 370.872L138.576 371.692L139.394 372.513L140.212 373.333V374.154L141.029 374.974L141.847 375.795L142.665 376.615L143.482 377.436V378.256L144.3 379.077L145.118 379.897L145.935 380.718L146.753 381.538V382.359L147.571 383.18L148.388 384L149.206 384.821L150.023 385.641L150.841 386.462V387.282L151.659 388.103L152.476 388.923L153.294 389.744L154.112 390.564L154.929 391.385L155.747 392.205L156.565 393.026V393.846L157.382 394.667L158.2 395.487L159.018 396.308L159.835 397.128L160.653 397.949L161.471 398.769L162.288 399.59L163.106 400.41L163.923 401.231L164.741 402.051L165.559 402.872L166.376 403.692L167.194 404.513L168.012 405.333L168.829 406.154L169.647 406.974L170.465 407.795V408.615L171.282 409.436H172.1L172.918 410.256L173.735 411.077V411.897L174.553 412.718H175.371L176.188 413.538L177.006 414.359L177.823 415.18L178.641 416L179.459 416.821L180.276 417.641L181.094 418.462L181.912 419.282L182.729 420.103L183.547 420.923L184.365 421.744L185.182 422.564L186 423.385L186.818 424.205L187.635 425.026L188.453 425.846L189.271 426.667L190.088 427.487H190.906L191.723 428.308L192.541 429.128L193.359 429.949L194.176 430.769L194.994 431.59L195.812 432.41L196.629 433.231L197.447 434.051L198.265 434.872H199.082L199.9 435.692L200.718 436.513L201.535 437.333L202.353 438.154L203.171 438.974H203.988L204.806 439.795L205.623 440.615L206.441 441.436L207.259 442.256L208.076 443.077H208.894L209.712 443.897L210.529 444.718L211.347 445.538L212.165 446.359L212.982 447.18H213.8L214.618 448L215.435 448.821L216.253 449.641H217.071L217.888 450.462L218.706 451.282L219.523 452.103L220.341 452.923H221.159L221.976 453.744L222.794 454.564L223.612 455.385H224.429L225.247 456.205L226.065 457.026L226.882 457.846H227.7L228.518 458.667L229.335 459.487L230.153 460.308H230.971L231.788 461.128L232.606 461.949H233.423L234.241 462.769L235.059 463.59H235.876L236.694 464.41L237.512 465.231L238.329 466.051H239.147L239.965 466.872L240.782 467.692H241.6L242.418 468.513L243.235 469.333H244.053L244.871 470.154L245.688 470.974H246.506L247.323 471.795L248.141 472.615H248.959L249.776 473.436L250.594 474.256H251.412L252.229 475.077L253.047 475.897H253.865L254.682 476.718L255.5 477.538L256.318 476.718H257.135L257.953 475.897L258.771 475.077H259.588L260.406 474.256L261.223 473.436H262.041L262.859 472.615L263.676 471.795H264.494L265.312 470.974L266.129 470.154H266.947L267.765 469.333H268.582L269.4 468.513L270.218 467.692L271.035 466.872H271.853L272.671 466.051L273.488 465.231H274.306L275.123 464.41L275.941 463.59H276.759L277.576 462.769L278.394 461.949H279.212L280.029 461.128L280.847 460.308L281.665 459.487H282.482L283.3 458.667L284.118 457.846L284.935 457.026H285.753L286.571 456.205L287.388 455.385L288.206 454.564H289.023L289.841 453.744L290.659 452.923H291.476L292.294 452.103L293.112 451.282L293.929 450.462L294.747 449.641H295.565L296.382 448.821L297.2 448L298.018 447.18H298.835L299.653 446.359L300.471 445.538L301.288 444.718L302.106 443.897H302.923L303.741 443.077L304.559 442.256L305.376 441.436L306.194 440.615H307.012L307.829 439.795L308.647 438.974L309.465 438.154L310.282 437.333L311.1 436.513H311.918L312.735 435.692L313.553 434.872L314.371 434.051L315.188 433.231L316.006 432.41L316.823 431.59L317.641 430.769L318.459 429.949L319.276 429.128H320.094L320.912 428.308L321.729 427.487L322.547 426.667L323.365 425.846L324.182 425.026L325 424.205L325.818 423.385L326.635 422.564H327.453L328.271 421.744L329.088 420.923L329.906 420.103L330.723 419.282L331.541 418.462L332.359 417.641L333.176 416.821L333.994 416L334.812 415.18L335.629 414.359L336.447 413.538L337.265 412.718L338.082 411.897L338.9 411.077L339.718 410.256L340.535 409.436L341.353 408.615L342.171 407.795L342.988 406.974L343.806 406.154L344.623 405.333L345.441 404.513L346.259 403.692L347.076 402.872L347.894 402.051L348.712 401.231L349.529 400.41L350.347 399.59L351.165 398.769L351.982 397.949V397.128L352.8 396.308L353.618 395.487L354.435 394.667L355.253 393.846L356.071 393.026L356.888 392.205L357.706 391.385L358.523 390.564L359.341 389.744L360.159 388.923V388.103L360.976 387.282L361.794 386.462L362.612 385.641L363.429 384.821L364.247 384L365.065 383.18V382.359L365.882 381.538L366.7 380.718L367.518 379.897L368.335 379.077V378.256L369.153 377.436L369.971 376.615L370.788 375.795L371.606 374.974L372.423 374.154V373.333L373.241 372.513L374.059 371.692L374.876 370.872L375.694 370.051V369.231L376.512 368.41L377.329 367.59L378.147 366.769L378.965 365.949V365.128L379.782 364.308L380.6 363.487L381.418 362.667V361.846L382.235 361.026L383.053 360.205V359.385L383.871 358.564L384.688 357.744L385.506 356.923V356.103L386.323 355.282L387.141 354.462L387.959 353.641V352.821L388.776 352L389.594 351.18V350.359L390.412 349.538L391.229 348.718L392.047 347.897V347.077L392.865 346.256L393.682 345.436V344.615L394.5 343.795L395.318 342.974V342.154L396.135 341.333V340.513L396.953 339.692L397.771 338.872V338.051L398.588 337.231L399.406 336.41V335.59L400.223 334.769L401.041 333.949V333.128L401.859 332.308L402.676 331.487V330.667L403.494 329.846V329.026L404.312 328.205V327.385L405.129 326.564L405.947 325.744V324.923L406.765 324.103V323.282L407.582 322.462L408.4 321.641V320.821L409.218 320V319.18L410.035 318.359L410.853 317.538V316.718L411.671 315.897V315.077L412.488 314.256V313.436L413.306 312.615V311.795L414.123 310.974V310.154L414.941 309.333V308.513L415.759 307.692L416.576 306.872V306.051L417.394 305.231V304.41L418.212 303.59V302.769L419.029 301.949V301.128L419.847 300.308V299.487L420.665 298.667V297.846L421.482 297.026V296.205L422.3 295.385V294.564L423.118 293.744V292.923L423.935 292.103V291.282L424.753 290.462V289.641L425.571 288.821V288L426.388 287.18V286.359L427.206 285.538V284.718L428.023 283.897V283.077V282.256L428.841 281.436V280.615L429.659 279.795V278.974L430.476 278.154V277.333L431.294 276.513V275.692V274.872L432.112 274.051V273.231L432.929 272.41V271.59V270.769L433.747 269.949V269.128L434.565 268.308V267.487L435.382 266.667V265.846V265.026L436.2 264.205V263.385L437.018 262.564V261.744V260.923L437.835 260.103V259.282L438.653 258.462V257.641V256.821L439.471 256V255.18V254.359L440.288 253.538V252.718V251.897L441.106 251.077V250.256L441.923 249.436V248.615V247.795L442.741 246.974V246.154V245.333L443.559 244.513V243.692V242.872L444.376 242.051V241.231V240.41L445.194 239.59V238.769V237.949L446.012 237.128V236.308V235.487V234.667L446.829 233.846V233.026V232.205L447.647 231.385V230.564V229.744V228.923L448.465 228.103V227.282V226.462L449.282 225.641V224.821V224V223.18L450.1 222.359V221.538V220.718L450.918 219.897V219.077V218.256V217.436L451.735 216.615V215.795V214.974V214.154L452.553 213.333V212.513V211.692L451.735 212.513V213.333L450.918 214.154V214.974L450.1 215.795V216.615V217.436L449.282 218.256V219.077L448.465 219.897V220.718L447.647 221.538V222.359L446.829 223.18V224L446.012 224.821V225.641L445.194 226.462V227.282L444.376 228.103V228.923L443.559 229.744V230.564L442.741 231.385V232.205L441.923 233.026V233.846L441.106 234.667V235.487L440.288 236.308V237.128L439.471 237.949V238.769L438.653 239.59L437.835 240.41V241.231L437.018 242.051V242.872L436.2 243.692V244.513L435.382 245.333L434.565 246.154V246.974L433.747 247.795V248.615L432.929 249.436V250.256L432.112 251.077L431.294 251.897V252.718L430.476 253.538V254.359L429.659 255.18L428.841 256V256.821L428.023 257.641V258.462L427.206 259.282L426.388 260.103V260.923L425.571 261.744L424.753 262.564V263.385L423.935 264.205L423.118 265.026V265.846L422.3 266.667L421.482 267.487V268.308L420.665 269.128L419.847 269.949V270.769L419.029 271.59L418.212 272.41V273.231L417.394 274.051L416.576 274.872L415.759 275.692V276.513L414.941 277.333L414.123 278.154V278.974L413.306 279.795L412.488 280.615V281.436L411.671 282.256L410.853 283.077L410.035 283.897V284.718L409.218 285.538L408.4 286.359L407.582 287.18V288L406.765 288.821L405.947 289.641L405.129 290.462V291.282L404.312 292.103L403.494 292.923L402.676 293.744V294.564L401.859 295.385L401.041 296.205L400.223 297.026L399.406 297.846L398.588 298.667L397.771 299.487V300.308L396.953 301.128L396.135 301.949L395.318 302.769L394.5 303.59V304.41L393.682 305.231L392.865 306.051L392.047 306.872L391.229 307.692L390.412 308.513V309.333L389.594 310.154L388.776 310.974L387.959 311.795L387.141 312.615L386.323 313.436L385.506 314.256L384.688 315.077L383.871 315.897L383.053 316.718V317.538L382.235 318.359L381.418 319.18L380.6 320L379.782 320.821L378.965 321.641L378.147 322.462L377.329 323.282L376.512 324.103L375.694 324.923L374.876 325.744L374.059 326.564L373.241 327.385L372.423 328.205L371.606 329.026L370.788 329.846L369.971 330.667L369.153 331.487L368.335 332.308L367.518 333.128L366.7 333.949L365.882 334.769L365.065 335.59L364.247 336.41L363.429 337.231L362.612 338.051L361.794 338.872L360.976 339.692L360.159 340.513L359.341 341.333L358.523 342.154L357.706 342.974H356.888V343.795L356.071 344.615H355.253L354.435 345.436L353.618 346.256L352.8 347.077L351.982 347.897L351.165 348.718L350.347 349.538L349.529 350.359H348.712L347.894 351.18L347.076 352L346.259 352.821L345.441 353.641L344.623 354.462H343.806L342.988 355.282L342.171 356.103L341.353 356.923H340.535L339.718 357.744L338.9 358.564L338.082 359.385L337.265 360.205H336.447L335.629 361.026L334.812 361.846L333.994 362.667L333.176 363.487H332.359L331.541 364.308L330.723 365.128L329.906 365.949H329.088L328.271 366.769L327.453 367.59H326.635L325.818 368.41L325 369.231L324.182 370.051H323.365L322.547 370.872L321.729 371.692H320.912L320.094 372.513L319.276 373.333H318.459L317.641 374.154L316.823 374.974H316.006L315.188 375.795L314.371 376.615H313.553L312.735 377.436H311.918L311.1 378.256L310.282 379.077H309.465L308.647 379.897H307.829L307.012 380.718L306.194 381.538H305.376L304.559 382.359H303.741L302.923 383.18L302.106 384H301.288L300.471 384.821H299.653L298.835 385.641H298.018L297.2 386.462H296.382L295.565 387.282H294.747L293.929 388.103H293.112L292.294 388.923L291.476 389.744H290.659L289.841 390.564H289.023H288.206L287.388 391.385H286.571L285.753 392.205H284.935L284.118 393.026H283.3L282.482 393.846H281.665H280.847L280.029 394.667H279.212L278.394 395.487H277.576H276.759L275.941 396.308H275.123L274.306 397.128H273.488L272.671 397.949H271.853H271.035L270.218 398.769H269.4H268.582L267.765 399.59H266.947H266.129L265.312 400.41H264.494H263.676L262.859 401.231H262.041H261.223L260.406 402.051H259.588H258.771H257.953L257.135 402.872H256.318H255.5H254.682L253.865 403.692H253.047H252.229H251.412H250.594L249.776 404.513H248.959H248.141H247.323H246.506L245.688 405.333H244.871H244.053H243.235H242.418H241.6H240.782H239.965H239.147H238.329H237.512L236.694 406.154H235.876L235.059 405.333V404.513L235.876 403.692H236.694L237.512 402.872H238.329L239.147 402.051H239.965L240.782 401.231H241.6H242.418L243.235 400.41H244.053L244.871 399.59H245.688L246.506 398.769H247.323L248.141 397.949H248.959L249.776 397.128H250.594L251.412 396.308H252.229L253.047 395.487H253.865L254.682 394.667H255.5L256.318 393.846H257.135L257.953 393.026H258.771L259.588 392.205H260.406L261.223 391.385H262.041L262.859 390.564H263.676L264.494 389.744H265.312L266.129 388.923L266.947 388.103H267.765L268.582 387.282H269.4L270.218 386.462H271.035L271.853 385.641L272.671 384.821H273.488L274.306 384H275.123L275.941 383.18H276.759L277.576 382.359L278.394 381.538H279.212L280.029 380.718H280.847L281.665 379.897L282.482 379.077H283.3L284.118 378.256L284.935 377.436H285.753L286.571 376.615H287.388L288.206 375.795L289.023 374.974H289.841L290.659 374.154H291.476L292.294 373.333L293.112 372.513H293.929L294.747 371.692L295.565 370.872H296.382L297.2 370.051L298.018 369.231H298.835L299.653 368.41L300.471 367.59L301.288 366.769H302.106L302.923 365.949L303.741 365.128H304.559L305.376 364.308L306.194 363.487H307.012L307.829 362.667L308.647 361.846L309.465 361.026H310.282L311.1 360.205L311.918 359.385H312.735L313.553 358.564L314.371 357.744L315.188 356.923H316.006L316.823 356.103L317.641 355.282L318.459 354.462H319.276L320.094 353.641L320.912 352.821L321.729 352H322.547L323.365 351.18L324.182 350.359L325 349.538L325.818 348.718H326.635L327.453 347.897L328.271 347.077L329.088 346.256L329.906 345.436H330.723L331.541 344.615L332.359 343.795L333.176 342.974L333.994 342.154H334.812L335.629 341.333L336.447 340.513L337.265 339.692L338.082 338.872L338.9 338.051H339.718L340.535 337.231L341.353 336.41L342.171 335.59L342.988 334.769L343.806 333.949L344.623 333.128L345.441 332.308H346.259L347.076 331.487L347.894 330.667L348.712 329.846L349.529 329.026L350.347 328.205L351.165 327.385L351.982 326.564L352.8 325.744L353.618 324.923L354.435 324.103L355.253 323.282L356.071 322.462L356.888 321.641L357.706 320.821L358.523 320H359.341V319.18L360.159 318.359L360.976 317.538H361.794L362.612 316.718L363.429 315.897L364.247 315.077V314.256L365.065 313.436H365.882L366.7 312.615L367.518 311.795L368.335 310.974V310.154L369.153 309.333L369.971 308.513L370.788 307.692L371.606 306.872L372.423 306.051L373.241 305.231L374.059 304.41L374.876 303.59L375.694 302.769L376.512 301.949L377.329 301.128L378.147 300.308L378.965 299.487L379.782 298.667V297.846L380.6 297.026L381.418 296.205L382.235 295.385L383.053 294.564L383.871 293.744L384.688 292.923L385.506 292.103V291.282L386.323 290.462L387.141 289.641L387.959 288.821L388.776 288L389.594 287.18V286.359L390.412 285.538L391.229 284.718L392.047 283.897L392.865 283.077L393.682 282.256L394.5 281.436V280.615L395.318 279.795L396.135 278.974L396.953 278.154L397.771 277.333V276.513L398.588 275.692L399.406 274.872L400.223 274.051V273.231L401.041 272.41L401.859 271.59L402.676 270.769V269.949L403.494 269.128L404.312 268.308L405.129 267.487V266.667L405.947 265.846L406.765 265.026L407.582 264.205V263.385L408.4 262.564L409.218 261.744V260.923L410.035 260.103L410.853 259.282V258.462L411.671 257.641L412.488 256.821V256L413.306 255.18L414.123 254.359V253.538L414.941 252.718L415.759 251.897V251.077L416.576 250.256L417.394 249.436V248.615L418.212 247.795L419.029 246.974V246.154L419.847 245.333V244.513L420.665 243.692L421.482 242.872V242.051L422.3 241.231L423.118 240.41V239.59L423.935 238.769V237.949L424.753 237.128L425.571 236.308V235.487L426.388 234.667V233.846L427.206 233.026L428.023 232.205V231.385L428.841 230.564V229.744L429.659 228.923V228.103L430.476 227.282V226.462L431.294 225.641L432.112 224.821V224L432.929 223.18V222.359L433.747 221.538V220.718L434.565 219.897V219.077L435.382 218.256V217.436L436.2 216.615V215.795L437.018 214.974V214.154L437.835 213.333V212.513L438.653 211.692V210.872L439.471 210.051V209.231L440.288 208.41V207.59L441.106 206.769V205.949V205.128L441.923 204.308V203.487L442.741 202.667V201.846V201.026L443.559 200.205V199.385L444.376 198.564V197.744L445.194 196.923V196.103V195.282L446.012 194.462V193.641V192.821L446.829 192V191.18L447.647 190.359V189.538V188.718L448.465 187.897V187.077V186.256L449.282 185.436V184.615V183.795L450.1 182.974V182.154V181.333L450.918 180.513V179.692V178.872L451.735 178.051V177.231V176.41L452.553 175.59V174.769V173.949L453.371 173.128V172.308V171.487V170.667L454.188 169.846V169.026V168.205V167.385L455.006 166.564V165.744V164.923V164.103L455.823 163.282V162.462V161.641V160.821L456.641 160V159.18V158.359V157.538V156.718L457.459 155.897V155.077V154.256V153.436V152.615L458.276 151.795V150.974V150.154V149.333V148.513L459.094 147.692V146.872V146.051V145.231V144.41V143.59V142.769L459.912 141.949V141.128V140.308V139.487V138.667V137.846V137.026V136.205L460.729 135.385V134.564V133.744V132.923V132.103V131.282V130.462V129.641V128.821L461.547 128V127.18V126.359V125.538V124.718V123.897V123.077V122.256V121.436V120.615V119.795V118.974V118.154V117.333V116.513V115.692V114.872V114.051V113.231V112.41V111.59V110.769V109.949V109.128V108.308V107.487V106.667V105.846V105.026L460.729 104.205V103.385V102.564V101.744L459.912 100.923V100.103L459.094 99.2821H458.276L457.459 98.4616H456.641L455.823 97.6411H455.006L454.188 96.8205H453.371L452.553 96H451.735L450.918 95.1795H450.1L449.282 94.359H448.465L447.647 93.5385H446.829L446.012 92.718H445.194L444.376 91.8975H443.559H442.741L441.923 91.0769H441.106L440.288 90.2564H439.471L438.653 89.4359H437.835L437.018 88.6154H436.2H435.382L434.565 87.7949H433.747L432.929 86.9744H432.112H431.294L430.476 86.1539H429.659L428.841 85.3334H428.023H427.206L426.388 84.5128H425.571L424.753 83.6923H423.935H423.118L422.3 82.8718H421.482L420.665 82.0513H419.847H419.029L418.212 81.2308H417.394H416.576L415.759 80.4103H414.941H414.123L413.306 79.5898H412.488H411.671L410.853 78.7693H410.035H409.218L408.4 77.9487H407.582H406.765L405.947 77.1282H405.129H404.312L403.494 76.3077H402.676H401.859H401.041L400.223 75.4872H399.406H398.588L397.771 74.6667H396.953H396.135H395.318L394.5 73.8462H393.682H392.865L392.047 73.0257H391.229H390.412H389.594L388.776 72.2052H387.959H387.141L386.323 71.3846H385.506H384.688H383.871H383.053L382.235 70.5641H381.418H380.6H379.782L378.965 69.7436H378.147H377.329H376.512L375.694 68.9231H374.876H374.059H373.241L372.423 68.1026H371.606H370.788H369.971H369.153L368.335 67.2821H367.518H366.7H365.882L365.065 66.4616H364.247H363.429H362.612H361.794H360.976L360.159 65.6411H359.341H358.523H357.706H356.888H356.071L355.253 64.8205H354.435H353.618H352.8H351.982L351.165 64H350.347H349.529H348.712H347.894H347.076L346.259 63.1795H345.441H344.623H343.806H342.988L342.171 62.359H341.353H340.535H339.718H338.9H338.082L337.265 61.5385H336.447H335.629H334.812H333.994H333.176H332.359L331.541 60.718H330.723H329.906H329.088H328.271H327.453H326.635H325.818H325H324.182H323.365L322.547 59.8975H321.729H320.912H320.094H319.276H318.459H317.641L318.459 60.718H319.276L320.094 61.5385H320.912H321.729L322.547 62.359H323.365L324.182 63.1795H325H325.818L326.635 64H327.453L328.271 64.8205H329.088H329.906L330.723 65.6411H331.541H332.359L333.176 66.4616H333.994L334.812 67.2821H335.629H336.447L337.265 68.1026H338.082H338.9L339.718 68.9231H340.535H341.353H342.171L342.988 69.7436H343.806H344.623L345.441 70.5641H346.259H347.076L347.894 71.3846H348.712H349.529L350.347 72.2052H351.165H351.982L352.8 73.0257H353.618H354.435L355.253 73.8462H356.071H356.888L357.706 74.6667H358.523H359.341L360.159 75.4872H360.976H361.794L362.612 76.3077H363.429H364.247L365.065 77.1282H365.882H366.7L367.518 77.9487H368.335H369.153L369.971 78.7693H370.788H371.606L372.423 79.5898H373.241H374.059L374.876 80.4103H375.694H376.512L377.329 81.2308H378.147H378.965L379.782 82.0513H380.6H381.418L382.235 82.8718H383.053H383.871L384.688 83.6923H385.506L386.323 84.5128H387.141H387.959L388.776 85.3334H389.594H390.412L391.229 86.1539H392.047L392.865 86.9744H393.682H394.5L395.318 87.7949H396.135L396.953 88.6154H397.771H398.588L399.406 89.4359H400.223H401.041L401.859 90.2564H402.676L403.494 91.0769H404.312L405.129 91.8975H405.947H406.765L407.582 92.718H408.4L409.218 93.5385H410.035H410.853L411.671 94.359H412.488L413.306 95.1795H414.123L414.941 96H415.759L416.576 96.8205H417.394L418.212 97.6411H419.029L419.847 98.4616H420.665L421.482 99.2821H422.3L423.118 100.103H423.935L424.753 100.923H425.571L426.388 101.744H427.206L428.023 102.564H428.841L429.659 103.385L430.476 104.205H431.294L432.112 105.026L432.929 105.846H433.747L434.565 106.667H435.382L436.2 107.487L437.018 108.308L437.835 109.128V109.949V110.769V111.59V112.41V113.231V114.051V114.872V115.692V116.513V117.333V118.154V118.974L437.018 119.795V120.615V121.436V122.256V123.077V123.897V124.718L436.2 125.538V126.359V127.18V128V128.821V129.641L435.382 130.462V131.282V132.103V132.923V133.744L434.565 134.564V135.385V136.205V137.026L433.747 137.846V138.667V139.487V140.308L432.929 141.128V141.949V142.769V143.59L432.112 144.41V145.231V146.051L431.294 146.872V147.692V148.513L430.476 149.333V150.154V150.974V151.795L429.659 152.615V153.436L428.841 154.256V155.077V155.897L428.023 156.718V157.538V158.359L427.206 159.18V160L426.388 160.821V161.641V162.462L425.571 163.282V164.103L424.753 164.923V165.744V166.564L423.935 167.385V168.205L423.118 169.026V169.846V170.667L422.3 171.487V172.308L421.482 173.128V173.949L420.665 174.769V175.59L419.847 176.41V177.231L419.029 178.051V178.872L418.212 179.692V180.513L417.394 181.333V182.154L416.576 182.974V183.795L415.759 184.615V185.436L414.941 186.256V187.077L414.123 187.897V188.718L413.306 189.538L412.488 190.359V191.18L411.671 192V192.821L410.853 193.641V194.462L410.035 195.282L409.218 196.103V196.923L408.4 197.744V198.564L407.582 199.385L406.765 200.205V201.026L405.947 201.846V202.667L405.129 203.487L404.312 204.308V205.128L403.494 205.949L402.676 206.769V207.59L401.859 208.41L401.041 209.231L400.223 210.051V210.872L399.406 211.692L398.588 212.513V213.333L397.771 214.154L396.953 214.974V215.795L396.135 216.615L395.318 217.436L394.5 218.256V219.077L393.682 219.897L392.865 220.718L392.047 221.538L391.229 222.359V223.18L390.412 224L389.594 224.821L388.776 225.641L387.959 226.462V227.282L387.141 228.103L386.323 228.923L385.506 229.744L384.688 230.564L383.871 231.385V232.205L383.053 233.026L382.235 233.846L381.418 234.667L380.6 235.487L379.782 236.308L378.965 237.128L378.147 237.949V238.769L377.329 239.59L376.512 240.41L375.694 241.231L374.876 242.051L374.059 242.872L373.241 243.692L372.423 244.513L371.606 245.333L370.788 246.154L369.971 246.974L369.153 247.795V248.615L368.335 249.436L367.518 250.256L366.7 251.077L365.882 251.897L365.065 252.718L364.247 253.538L363.429 254.359L362.612 255.18L361.794 256L360.976 256.821L360.159 257.641H359.341L358.523 258.462L357.706 259.282L356.888 260.103L356.071 260.923L355.253 261.744L354.435 262.564L353.618 263.385L352.8 264.205L351.982 265.026L351.165 265.846L350.347 266.667H349.529L348.712 267.487L347.894 268.308L347.076 269.128L346.259 269.949L345.441 270.769H344.623L343.806 271.59L342.988 272.41L342.171 273.231L341.353 274.051L340.535 274.872H339.718L338.9 275.692L338.082 276.513L337.265 277.333L336.447 278.154L335.629 278.974H334.812L333.994 279.795L333.176 280.615L332.359 281.436H331.541L330.723 282.256L329.906 283.077L329.088 283.897H328.271L327.453 284.718L326.635 285.538L325.818 286.359H325L324.182 287.18L323.365 288H322.547L321.729 288.821L320.912 289.641L320.094 290.462H319.276L318.459 291.282L317.641 292.103L316.823 292.923H316.006L315.188 293.744L314.371 294.564H313.553L312.735 295.385L311.918 296.205H311.1L310.282 297.026L309.465 297.846H308.647L307.829 298.667L307.012 299.487H306.194L305.376 300.308L304.559 301.128H303.741L302.923 301.949H302.106L301.288 302.769L300.471 303.59H299.653L298.835 304.41L298.018 305.231H297.2L296.382 306.051L295.565 306.872H294.747L293.929 307.692H293.112L292.294 308.513L291.476 309.333H290.659L289.841 310.154H289.023L288.206 310.974H287.388L286.571 311.795L285.753 312.615H284.935L284.118 313.436H283.3L282.482 314.256H281.665L280.847 315.077H280.029L279.212 315.897L278.394 316.718H277.576L276.759 317.538H275.941L275.123 318.359H274.306L273.488 319.18H272.671L271.853 320H271.035L270.218 320.821L269.4 321.641H268.582L267.765 322.462H266.947L266.129 323.282H265.312L264.494 324.103H263.676L262.859 324.923H262.041H261.223L260.406 325.744H259.588L258.771 326.564H257.953L257.135 327.385H256.318L255.5 328.205H254.682L253.865 329.026H253.047L252.229 329.846H251.412L250.594 330.667H249.776L248.959 331.487H248.141H247.323L246.506 332.308H245.688L244.871 333.128H244.053L243.235 333.949H242.418L241.6 334.769H240.782H239.965L239.147 335.59H238.329L237.512 336.41H236.694L235.876 337.231H235.059H234.241L233.423 338.051H232.606H231.788L230.971 338.872H230.153L229.335 339.692H228.518H227.7L226.882 340.513H226.065L225.247 341.333H224.429H223.612L222.794 342.154H221.976H221.159L220.341 342.974H219.523L218.706 343.795H217.888H217.071L216.253 344.615H215.435H214.618L213.8 345.436H212.982H212.165L211.347 346.256H210.529H209.712L208.894 347.077H208.076L207.259 347.897H206.441H205.623H204.806L203.988 348.718H203.171H202.353L201.535 349.538H200.718H199.9L199.082 350.359H198.265H197.447L196.629 351.18H195.812H194.994H194.176L193.359 352H192.541H191.723H190.906L190.088 352.821H189.271H188.453L187.635 353.641H186.818H186H185.182L184.365 354.462H183.547H182.729H181.912L181.094 355.282H180.276H179.459H178.641H177.823L177.006 356.103H176.188H175.371H174.553H173.735L172.918 355.282L172.1 354.462H171.282L170.465 353.641L169.647 352.821L168.829 352L168.012 351.18L167.194 350.359H166.376L165.559 349.538L164.741 348.718L163.923 347.897L163.106 347.077L162.288 346.256L161.471 345.436L160.653 344.615L159.835 343.795L159.018 342.974H158.2L157.382 342.154L156.565 341.333L155.747 340.513L154.929 339.692L154.112 338.872L153.294 338.051L152.476 337.231L151.659 336.41L150.841 335.59V334.769L150.023 333.949L149.206 333.128L148.388 332.308L147.571 331.487L146.753 330.667L145.935 329.846L145.118 329.026L144.3 328.205L143.482 327.385L142.665 326.564V325.744L141.847 324.923L141.029 324.103L140.212 323.282L139.394 322.462L138.576 321.641L137.759 320.821V320L136.941 319.18L136.123 318.359L135.306 317.538L134.488 316.718V315.897L133.671 315.077L132.853 314.256V313.436L132.035 312.615L131.218 311.795L130.4 310.974V310.154L129.582 309.333L128.765 308.513V307.692L127.947 306.872L127.129 306.051V305.231L126.312 304.41L125.494 303.59V302.769L124.676 301.949L123.859 301.128V300.308L123.041 299.487L122.223 298.667V297.846L121.406 297.026V296.205L120.588 295.385L119.771 294.564V293.744L118.953 292.923V292.103L118.135 291.282L117.318 290.462V289.641L116.5 288.821V288L115.682 287.18V286.359L114.865 285.538V284.718L114.047 283.897V283.077L113.229 282.256L112.412 281.436V280.615V279.795L111.594 278.974V278.154L110.776 277.333V276.513L109.959 275.692V274.872L109.141 274.051V273.231L108.323 272.41V271.59L107.506 270.769V269.949V269.128L106.688 268.308V267.487L105.871 266.667V265.846V265.026L105.053 264.205V263.385L104.235 262.564V261.744V260.923L103.418 260.103V259.282V258.462L102.6 257.641V256.821L101.782 256V255.18V254.359L100.965 253.538V252.718V251.897L100.147 251.077V250.256V249.436V248.615L99.3294 247.795V246.974V246.154L98.5117 245.333V244.513V243.692L97.6941 242.872V242.051V241.231V240.41V239.59L96.8764 238.769V237.949V237.128V236.308L96.0588 235.487V234.667V233.846V233.026V232.205L95.2411 231.385V230.564V229.744V228.923V228.103V227.282L94.4235 226.462V225.641V224.821V224V223.18V222.359L93.6058 221.538V220.718V219.897V219.077V218.256V217.436V216.615V215.795V214.974V214.154L92.7882 213.333V212.513L93.6058 211.692V210.872L92.7882 210.051V209.231V208.41V207.59V206.769V205.949V205.128V204.308V203.487V202.667V201.846V201.026V200.205V199.385V198.564V197.744V196.923V196.103V195.282V194.462V193.641V192.821V192V191.18V190.359V189.538V188.718V187.897V187.077L93.6058 186.256V185.436L92.7882 184.615L93.6058 183.795V182.974V182.154V181.333V180.513V179.692V178.872V178.051L94.4235 177.231V176.41V175.59V174.769V173.949V173.128V172.308L95.2411 171.487V170.667V169.846V169.026V168.205L96.0588 167.385V166.564V165.744V164.923V164.103L96.8764 163.282V162.462V161.641V160.821L97.6941 160V159.18V158.359V157.538L98.5117 156.718V155.897V155.077L99.3294 154.256V153.436V152.615L100.147 151.795V150.974V150.154L100.965 149.333V148.513V147.692L101.782 146.872V146.051L102.6 145.231V144.41V143.59L103.418 142.769V141.949L104.235 141.128V140.308V139.487L105.053 138.667V137.846L105.871 137.026V136.205L106.688 135.385V134.564L107.506 133.744V132.923L108.323 132.103V131.282L109.141 130.462L109.959 129.641V128.821L110.776 128V127.18L111.594 126.359L112.412 125.538V124.718L113.229 123.897L114.047 123.077V122.256L114.865 121.436L115.682 120.615L116.5 119.795V118.974L117.318 118.154L118.135 117.333L118.953 116.513V115.692L119.771 114.872L120.588 114.051L121.406 113.231L122.223 112.41V111.59L123.041 110.769L123.859 109.949L124.676 109.128L125.494 108.308L126.312 107.487L127.129 106.667L127.947 105.846L128.765 105.026L129.582 104.205L130.4 103.385L131.218 102.564L132.035 101.744L132.853 100.923L133.671 100.103L134.488 99.2821L135.306 98.4616L136.123 97.6411L136.941 96.8205L137.759 96L138.576 95.1795H139.394L140.212 94.359L141.029 93.5385L141.847 92.718L142.665 91.8975L143.482 91.0769H144.3L145.118 90.2564L145.935 89.4359L146.753 88.6154L147.571 87.7949H148.388L149.206 86.9744L150.023 86.1539L150.841 85.3334H151.659L152.476 84.5128L153.294 83.6923L154.112 82.8718H154.929L155.747 82.0513L156.565 81.2308H157.382L158.2 80.4103L159.018 79.5898L159.835 78.7693H160.653L161.471 77.9487L162.288 77.1282H163.106L163.923 76.3077L164.741 75.4872H165.559L166.376 74.6667H167.194L168.012 73.8462L168.829 73.0257H169.647L170.465 72.2052L171.282 71.3846H172.1L172.918 70.5641H173.735L174.553 69.7436H175.371L176.188 68.9231L177.006 68.1026H177.823L178.641 67.2821H179.459L180.276 66.4616H181.094L181.912 65.6411H182.729L183.547 64.8205L184.365 64H185.182L186 63.1795H186.818L187.635 62.359H188.453L189.271 61.5385H190.088L190.906 60.718H191.723L192.541 59.8975H191.723H190.906H190.088H189.271H188.453Z" fill="white"/>
<path d="M212.982 75.4872L212.165 76.3077H211.347L210.529 77.1282H209.712L208.894 77.9487H208.076L207.259 78.7692H206.441L205.623 79.5897H204.806L203.988 80.4103H203.17L202.353 81.2308L201.535 82.0513H200.718L199.9 82.8718H199.082L198.265 83.6923L197.447 84.5128H196.629L195.812 85.3333L194.994 86.1538L194.176 86.9744H193.359L192.541 87.7949L191.723 88.6154H190.906L190.088 89.4359L189.27 90.2564L188.453 91.0769L187.635 91.8974L186.818 92.718H186L185.182 93.5385L184.365 94.359L183.547 95.1795L182.729 96L181.912 96.8205L181.094 97.641L180.276 98.4615L179.459 99.2821L178.641 100.103L177.823 100.923L177.006 101.744L176.188 102.564L175.37 103.385V104.205L174.553 105.026L173.735 105.846L172.918 106.667V107.487L172.1 108.308L171.282 109.128L170.465 109.949V110.769L169.647 111.59L168.829 112.41V113.231L168.012 114.051L167.194 114.872V115.692L166.376 116.513L165.559 117.333V118.154L164.741 118.974V119.795L163.923 120.615V121.436L163.106 122.256V123.077L162.288 123.897L161.47 124.718V125.538V126.359L160.653 127.179V128L159.835 128.821V129.641L159.018 130.462V131.282L158.2 132.103V132.923V133.744L157.382 134.564V135.385V136.205L156.565 137.026V137.846V138.667L155.747 139.487V140.308V141.128V141.949L154.929 142.769V143.59V144.41V145.231L154.112 146.051V146.872V147.692V148.513L153.294 149.333V150.154V150.974V151.795V152.615V153.436L152.476 154.256V155.077V155.897V156.718V157.538V158.359L151.659 159.179V160V160.821V161.641V162.462V163.282V164.103V164.923V165.744V166.564V167.385V168.205V169.026V169.846V170.667V171.487V172.308V173.128V173.949V174.769V175.59V176.41L152.476 177.231V178.051V178.872V179.692V180.513V181.333V182.154V182.974V183.795L153.294 184.615V185.436V186.256V187.077V187.897L154.112 188.718V189.538V190.359V191.179L154.929 192V192.821V193.641V194.462L155.747 195.282V196.103V196.923V197.744L156.565 198.564V199.385V200.205L157.382 201.026V201.846V202.667L158.2 203.487V204.308V205.128L159.018 205.949V206.769L159.835 207.59V208.41V209.231L160.653 210.051V210.872L161.47 211.692V212.513L162.288 213.333V214.154L163.106 214.974V215.795L163.923 216.615V217.436L164.741 218.256V219.077L165.559 219.897L166.376 220.718V221.538L167.194 222.359V223.179L168.012 224L168.829 224.821V225.641L169.647 226.462L170.465 227.282L171.282 228.103V228.923L172.1 229.744L172.918 230.564L173.735 231.385V232.205L174.553 233.026L175.37 233.846L176.188 234.667L177.006 235.487L177.823 236.308V237.128L178.641 237.949L179.459 238.769L180.276 239.59L181.094 240.41L181.912 241.231L182.729 242.051H183.547L184.365 242.872L185.182 243.692L186 244.513L186.818 245.333L187.635 246.154L188.453 246.974L189.27 247.795H190.088L190.906 248.615L191.723 249.436L192.541 250.256H193.359L194.176 251.077L194.994 251.897L195.812 252.718H196.629L197.447 253.538H198.265L199.082 254.359L199.9 255.179H200.718L201.535 256L202.353 256.821H203.17L203.988 257.641H204.806L205.623 258.462H206.441L207.259 259.282H208.076L208.894 260.103H209.712L210.529 260.923H211.347L212.165 261.744H212.982H213.8L214.618 262.564H215.435L216.253 263.385H217.07L217.888 264.205H218.706H219.523L220.341 265.026H221.159H221.976L222.794 265.846H223.612H224.429H225.247L226.065 266.667H226.882H227.7L228.518 267.487H229.335H230.153H230.97L231.788 268.308H232.606H233.423H234.241H235.059L235.876 269.128H236.694H237.512H238.329H239.147H239.965H240.782L241.6 269.949H242.418H243.235H244.053H244.87H245.688H246.506H247.323H248.141H248.959L249.776 270.769H250.594H251.412H252.229H253.047H253.865H254.682H255.5H256.318H257.135H257.953H258.77H259.588H260.406H261.223L262.041 269.949H262.859H263.676H264.494H265.312H266.129H266.947H267.765L268.582 269.128H269.4H270.218H271.035H271.853H272.67H273.488H274.306L275.123 268.308H275.941H276.759H277.576L278.394 267.487H279.212H280.029H280.847H281.665L282.482 266.667H283.3H284.118H284.935L285.753 265.846H286.57H287.388L288.206 265.026H289.023H289.841L290.659 264.205H291.476H292.294L293.112 263.385H293.929L294.747 262.564H295.565H296.382L297.2 261.744H298.018L298.835 260.923H299.653L300.47 260.103H301.288L302.106 259.282H302.923L303.741 258.462H304.559L305.376 257.641H306.194L307.012 256.821H307.829L308.647 256L309.465 255.179H310.282L311.1 254.359L311.918 253.538H312.735L313.553 252.718H314.37L315.188 251.897L316.006 251.077L316.823 250.256H317.641L318.459 249.436L319.276 248.615L320.094 247.795H320.912L321.729 246.974L322.547 246.154L323.365 245.333L324.182 244.513L325 243.692H325.818L326.635 242.872L327.453 242.051L328.27 241.231L329.088 240.41L329.906 239.59L330.723 238.769L331.541 237.949L332.359 237.128L333.176 236.308V235.487L333.994 234.667L334.812 233.846L335.629 233.026L336.447 232.205V231.385L337.265 230.564L338.082 229.744L338.9 228.923L339.718 228.103V227.282L340.535 226.462L341.353 225.641V224.821L342.17 224L342.988 223.179V222.359L343.806 221.538V220.718L344.623 219.897L345.441 219.077V218.256L346.259 217.436V216.615L347.076 215.795L347.894 214.974V214.154V213.333L348.712 212.513V211.692L349.529 210.872V210.051L350.347 209.231V208.41L351.165 207.59V206.769V205.949L351.982 205.128V204.308L352.8 203.487V202.667V201.846L353.618 201.026V200.205V199.385L354.435 198.564V197.744V196.923V196.103L355.253 195.282V194.462V193.641V192.821L356.07 192V191.179V190.359V189.538L356.888 188.718V187.897V187.077V186.256V185.436V184.615V183.795L357.706 182.974V182.154V181.333V180.513V179.692V178.872V178.051V177.231L358.523 176.41V175.59V174.769V173.949V173.128V172.308V171.487V170.667V169.846V169.026V168.205V167.385V166.564V165.744V164.923V164.103V163.282V162.462V161.641V160.821V160L357.706 159.179V158.359V157.538V156.718V155.897V155.077V154.256L356.888 153.436V152.615V151.795V150.974V150.154V149.333L356.07 148.513V147.692V146.872V146.051V145.231L355.253 144.41V143.59V142.769L354.435 141.949V141.128V140.308V139.487L353.618 138.667V137.846V137.026L352.8 136.205V135.385V134.564L351.982 133.744V132.923V132.103L351.165 131.282V130.462L350.347 129.641V128.821L349.529 128V127.179L348.712 126.359V125.538V124.718L347.894 123.897V123.077L347.076 122.256L346.259 121.436V120.615L345.441 119.795V118.974L344.623 118.154V117.333L343.806 116.513L342.988 115.692V114.872L342.17 114.051L341.353 113.231V112.41L340.535 111.59L339.718 110.769V109.949L338.9 109.128L338.082 108.308L337.265 107.487V106.667L336.447 105.846L335.629 105.026L334.812 104.205L333.994 103.385V102.564L333.176 101.744L332.359 100.923L331.541 100.103L330.723 99.2821L329.906 98.4615L329.088 97.641L328.27 96.8205L327.453 96L326.635 95.1795L325.818 94.359L325 93.5385L324.182 92.718L323.365 91.8974H322.547L321.729 91.0769L320.912 90.2564L320.094 89.4359L319.276 88.6154H318.459L317.641 87.7949L316.823 86.9744L316.006 86.1538H315.188L314.37 85.3333L313.553 84.5128H312.735L311.918 83.6923L311.1 82.8718H310.282L309.465 82.0513H308.647L307.829 81.2308L307.012 80.4103H306.194L305.376 79.5897H304.559L303.741 78.7692H302.923L302.106 77.9487H301.288L300.47 77.1282H299.653L298.835 76.3077H298.018L297.2 75.4872V76.3077V77.1282V77.9487V78.7692V79.5897V80.4103V81.2308V82.0513V82.8718V83.6923V84.5128V85.3333V86.1538V86.9744V87.7949V88.6154V89.4359V90.2564V91.0769V91.8974V92.718V93.5385V94.359V95.1795V96V96.8205V97.641V98.4615V99.2821V100.103V100.923V101.744V102.564V103.385V104.205V105.026V105.846V106.667V107.487V108.308V109.128V109.949V110.769V111.59V112.41V113.231V114.051V114.872L298.018 115.692L298.835 116.513L299.653 117.333L300.47 118.154L301.288 118.974L302.106 119.795L302.923 120.615L303.741 121.436L304.559 122.256L305.376 123.077L306.194 123.897L307.012 124.718L307.829 125.538L308.647 126.359L309.465 127.179L310.282 128V128.821L311.1 129.641L311.918 130.462V131.282L312.735 132.103L313.553 132.923V133.744L314.37 134.564L315.188 135.385V136.205L316.006 137.026V137.846L316.823 138.667V139.487L317.641 140.308V141.128V141.949L318.459 142.769V143.59L319.276 144.41V145.231V146.051L320.094 146.872V147.692V148.513L320.912 149.333V150.154V150.974V151.795L321.729 152.615V153.436V154.256V155.077L322.547 155.897V156.718V157.538V158.359V159.179V160L323.365 160.821V161.641V162.462V163.282V164.103V164.923V165.744V166.564V167.385V168.205V169.026V169.846V170.667V171.487V172.308V173.128V173.949V174.769V175.59V176.41V177.231V178.051L322.547 178.872V179.692V180.513V181.333V182.154L321.729 182.974V183.795V184.615V185.436L320.912 186.256V187.077V187.897V188.718L320.094 189.538V190.359L319.276 191.179V192V192.821L318.459 193.641V194.462L317.641 195.282V196.103V196.923L316.823 197.744V198.564L316.006 199.385V200.205L315.188 201.026L314.37 201.846V202.667L313.553 203.487V204.308L312.735 205.128L311.918 205.949V206.769L311.1 207.59L310.282 208.41L309.465 209.231V210.051L308.647 210.872L307.829 211.692L307.012 212.513L306.194 213.333L305.376 214.154L304.559 214.974L303.741 215.795L302.923 216.615L302.106 217.436L301.288 218.256L300.47 219.077L299.653 219.897L298.835 220.718H298.018L297.2 221.538L296.382 222.359L295.565 223.179L294.747 224H293.929L293.112 224.821L292.294 225.641H291.476L290.659 226.462L289.841 227.282H289.023L288.206 228.103H287.388L286.57 228.923H285.753L284.935 229.744H284.118L283.3 230.564H282.482L281.665 231.385H280.847H280.029L279.212 232.205H278.394L277.576 233.026H276.759H275.941L275.123 233.846H274.306H273.488H272.67L271.853 234.667H271.035H270.218H269.4H268.582L267.765 235.487H266.947H266.129H265.312H264.494H263.676L262.859 236.308H262.041H261.223H260.406H259.588H258.77H257.953H257.135H256.318H255.5H254.682H253.865H253.047H252.229H251.412H250.594H249.776H248.959H248.141L247.323 235.487L246.506 236.308L245.688 235.487H244.87H244.053H243.235H242.418L241.6 234.667H240.782H239.965H239.147H238.329L237.512 233.846H236.694H235.876L235.059 233.026H234.241H233.423L232.606 232.205H231.788H230.97L230.153 231.385H229.335L228.518 230.564H227.7H226.882L226.065 229.744H225.247L224.429 228.923H223.612L222.794 228.103H221.976L221.159 227.282L220.341 226.462H219.523L218.706 225.641H217.888L217.07 224.821L216.253 224H215.435L214.618 223.179L213.8 222.359L212.982 221.538H212.165L211.347 220.718L210.529 219.897L209.712 219.077L208.894 218.256L208.076 217.436L207.259 216.615L206.441 215.795L205.623 214.974L204.806 214.154L203.988 213.333L203.17 212.513L202.353 211.692L201.535 210.872L200.718 210.051V209.231L199.9 208.41L199.082 207.59L198.265 206.769V205.949L197.447 205.128V204.308L196.629 203.487L195.812 202.667V201.846L194.994 201.026V200.205L194.176 199.385V198.564L193.359 197.744V196.923L192.541 196.103V195.282L191.723 194.462V193.641L190.906 192.821V192V191.179L190.088 190.359V189.538V188.718L189.27 187.897V187.077V186.256V185.436L188.453 184.615V183.795V182.974V182.154L187.635 181.333V180.513V179.692V178.872V178.051L186.818 177.231V176.41V175.59V174.769V173.949V173.128V172.308V171.487V170.667V169.846V169.026V168.205V167.385V166.564V165.744V164.923V164.103V163.282V162.462V161.641V160.821V160L187.635 159.179V158.359V157.538V156.718V155.897L188.453 155.077V154.256V153.436V152.615L189.27 151.795V150.974V150.154L190.088 149.333V148.513V147.692L190.906 146.872V146.051V145.231L191.723 144.41V143.59V142.769L192.541 141.949V141.128L193.359 140.308V139.487L194.176 138.667V137.846L194.994 137.026V136.205L195.812 135.385V134.564L196.629 133.744L197.447 132.923V132.103L198.265 131.282L199.082 130.462V129.641L199.9 128.821L200.718 128L201.535 127.179L202.353 126.359V125.538L203.17 124.718L203.988 123.897L204.806 123.077L205.623 122.256L206.441 121.436L207.259 120.615L208.076 119.795L208.894 118.974L209.712 118.154L210.529 117.333L211.347 116.513L212.165 115.692H212.982V114.872V114.051V113.231V112.41V111.59V110.769V109.949V109.128V108.308V107.487V106.667V105.846V105.026V104.205V103.385V102.564V101.744V100.923V100.103V99.2821V98.4615V97.641V96.8205V96V95.1795V94.359V93.5385V92.718V91.8974V91.0769V90.2564V89.4359V88.6154V87.7949V86.9744V86.1538V85.3333V84.5128V83.6923V82.8718V82.0513V81.2308V80.4103V79.5897V78.7692V77.9487V77.1282V76.3077V75.4872Z" fill="white"/>
<path d="M247.323 34.4615H246.506H245.688H244.871H244.053L242.418 35.2821L241.6 36.1026L240.782 36.9231L239.965 37.7436L239.147 39.3846L238.329 40.2051V41.0257L237.512 41.8462V42.6667V43.4872V44.3077V45.1282V45.9487V46.7692V47.5898V48.4103V49.2308V50.0513V50.8718V51.6923V52.5128V53.3333V54.1539V54.9744V55.7949V56.6154V57.4359V58.2564V59.0769V59.8974V60.718V61.5385V62.359V63.1795V64V64.8205V65.641V66.4615V67.2821V68.1026V68.9231V69.7436V70.5641V71.3846V72.2051V73.0257V73.8462V74.6667V75.4872V76.3077V77.1282V77.9487V78.7692V79.5898V80.4103V81.2308V82.0513V82.8718V83.6923V84.5128V85.3333V86.1539V86.9744V87.7949V88.6154V89.4359V90.2564V91.0769V91.8974V92.718V93.5385V94.359V95.1795V96V96.8205V97.641V98.4615V99.2821V100.103V100.923V101.744V102.564V103.385V104.205V105.026V105.846V106.667V107.487V108.308V109.128V109.949V110.769V111.59V112.41V113.231V114.051V114.872V115.692V116.513V117.333V118.154V118.974V119.795V120.615V121.436V122.256V123.077V123.897V124.718V125.538V126.359V127.179V128V128.821V129.641V130.462V131.282V132.103V132.923V133.744V134.564V135.385V136.205V137.026V137.846V138.667V139.487V140.308V141.128V141.949V142.769V143.59V144.41V145.231V146.051V146.872V147.692V148.513V149.333V150.154V150.974V151.795V152.615L238.329 153.436V154.256L239.147 155.077V155.897L239.965 156.718L240.782 157.538L241.6 158.359L242.418 158.769L243.235 160H244.053H244.871H245.688L246.506 160.821H247.323H248.141H248.959H249.776H250.594H251.412H252.229H253.047H253.865H254.682H255.5H256.318H257.135H257.953H258.771H259.588H260.406H261.223H262.041H262.859L263.676 160H264.494H265.312H266.129L266.947 159.179H267.765L268.582 158.359L269.4 157.538L270.218 156.718L271.035 155.897L271.853 155.077V154.256V153.436L272.671 152.615V151.795V150.974V150.154V149.333V148.513V147.692V146.872V146.051V145.231V144.41V143.59V142.769V141.949V141.128V140.308V139.487V138.667V137.846V137.026V136.205V135.385V134.564V133.744V132.923V132.103V131.282V130.462V129.641V128.821V128V127.179V126.359V125.538V124.718V123.897V123.077V122.256V121.436V120.615V119.795V118.974V118.154V117.333V116.513V115.692V114.872V114.051V113.231V112.41V111.59V110.769V109.949V109.128V108.308V107.487V106.667V105.846V105.026V104.205V103.385V102.564V101.744V100.923V100.103V99.2821V98.4615V97.641V96.8205V96V95.1795V94.359V93.5385V92.718V91.8974V91.0769V90.2564V89.4359V88.6154V87.7949V86.9744V86.1539V85.3333V84.5128V83.6923V82.8718V82.0513V81.2308V80.4103V79.5898V78.7692V77.9487V77.1282V76.3077V75.4872V74.6667V73.8462V73.0257V72.2051V71.3846V70.5641V69.7436V68.9231V68.1026V67.2821V66.4615V65.641V64.8205V64V63.1795V62.359V61.5385V60.718V59.8974V59.0769V58.2564V57.4359V56.6154V55.7949V54.9744V54.1539V53.3333V52.5128V51.6923V50.8718V50.0513V49.2308V48.4103V47.5898V46.7692V45.9487V45.1282V44.3077V43.4872V42.6667V41.8462L271.853 41.0257V40.2051L271.035 39.3846V38.5641L270.218 37.7436L269.4 36.9231L268.582 36.1026L267.765 35.2821L267.356 34.8718L266.129 34.4615H265.312H264.494H263.676H262.859H262.041H261.223H260.406H259.588H258.771H257.953H257.135H256.318H255.5H254.682H253.865H253.047H252.229H251.412H250.594H249.776H248.959H248.141H247.323Z" fill="white"/>
</svg>
